<?xml version="1.0" encoding="UTF-8" standalone="no"?>
<!-- Created with Inkscape (http://www.inkscape.org/) -->

<svg
   xmlns:dc="http://purl.org/dc/elements/1.1/"
   xmlns:cc="http://creativecommons.org/ns#"
   xmlns:rdf="http://www.w3.org/1999/02/22-rdf-syntax-ns#"
   xmlns:svg="http://www.w3.org/2000/svg"
   xmlns="http://www.w3.org/2000/svg"
   xmlns:sodipodi="http://sodipodi.sourceforge.net/DTD/sodipodi-0.dtd"
   xmlns:inkscape="http://www.inkscape.org/namespaces/inkscape"
   width="500"
   height="500"
   id="svg2"
   version="1.1"
   inkscape:version="0.91 r13725"
   sodipodi:docname="Logo of Anthon OS4 Project.svg">
  <title
     id="title4445">Logo of Anthon OS4 Project</title>
  <defs
     id="defs4" />
  <sodipodi:namedview
     id="base"
     pagecolor="#ffffff"
     bordercolor="#666666"
     borderopacity="1.0"
     inkscape:pageopacity="0.0"
     inkscape:pageshadow="2"
     inkscape:zoom="1.048"
     inkscape:cx="250"
     inkscape:cy="250"
     inkscape:document-units="px"
     inkscape:current-layer="layer1"
     showgrid="false"
     inkscape:window-width="1321"
     inkscape:window-height="743"
     inkscape:window-x="0"
     inkscape:window-y="-2"
     inkscape:window-maximized="1" />
  <metadata
     id="metadata7">
    <rdf:RDF>
      <cc:Work
         rdf:about="">
        <dc:format>image/svg+xml</dc:format>
        <dc:type
           rdf:resource="http://purl.org/dc/dcmitype/StillImage" />
        <dc:title>Logo of Anthon OS4 Project</dc:title>
        <dc:creator>
          <cc:Agent>
            <dc:title>Junde Yi</dc:title>
          </cc:Agent>
        </dc:creator>
        <cc:license
           rdf:resource="http://creativecommons.org/licenses/publicdomain/" />
        <dc:date />
        <dc:contributor>
          <cc:Agent>
            <dc:title>Jeff Bai, Icenowy Zheng, Junde Yi</dc:title>
          </cc:Agent>
        </dc:contributor>
        <dc:publisher>
          <cc:Agent>
            <dc:title>Anthon Open Source Community </dc:title>
          </cc:Agent>
        </dc:publisher>
        <dc:description />
      </cc:Work>
      <cc:License
         rdf:about="http://creativecommons.org/licenses/publicdomain/">
        <cc:permits
           rdf:resource="http://creativecommons.org/ns#Reproduction" />
        <cc:permits
           rdf:resource="http://creativecommons.org/ns#Distribution" />
        <cc:permits
           rdf:resource="http://creativecommons.org/ns#DerivativeWorks" />
      </cc:License>
    </rdf:RDF>
  </metadata>
  <g
     inkscape:groupmode="layer"
     id="layer2"
     inkscape:label="Circle">
    <path
       transform="matrix(1.0493828,0,0,1.0493828,-81.30515,-76.807773)"
       sodipodi:type="arc"
       style="fill:#000000;fill-opacity:1;stroke:none"
       id="path3558"
       sodipodi:cx="315.71429"
       sodipodi:cy="311.42856"
       sodipodi:rx="231.42857"
       sodipodi:ry="231.42857"
       d="m 547.14287,311.42856 a 231.42857,231.42857 0 1 1 -462.857149,0 231.42857,231.42857 0 1 1 462.857149,0 z" />
  </g>
  <g
     inkscape:label="Next"
     inkscape:groupmode="layer"
     id="layer1"
     transform="translate(0,-552.36218)">
    <path
       style="fill:#dedede;fill-opacity:1;stroke:none"
       d="m 250,623.31099 c -2.9259,0 -5.82425,0.0629 -8.71573,0.20199 l 6.04626,91.60191 c 0.71085,-0.0168 1.42977,-0.0226 2.1447,-0.0226 48.6757,0 88.13842,38.84432 88.13842,86.75357 0,13.58959 -3.16991,26.4599 -8.82982,37.91116 l 81.47612,42.19838 c 11.908,-23.9773 18.61792,-50.99927 18.61792,-79.59331 0,-98.88903 -80.08635,-179.05124 -178.87787,-179.05124 z m -13.75808,0.51626 c -0.16058,0.0121 -0.31868,0.0323 -0.47914,0.0448 l 0.0227,0.26934 0.5704,-0.31422 c -0.0377,0.003 -0.0765,-0.003 -0.11405,0 z M 92.523589,717.35947 c -13.654905,25.29045 -21.401456,54.23715 -21.401456,85.00278 0,98.88902 80.086357,179.05123 178.877867,179.05123 5.01064,0 9.96969,-0.20161 14.87607,-0.60613 l -6.11469,-92.67918 c -3.05145,0.3145 -6.15014,0.47137 -9.28615,0.47137 -48.67569,0 -88.13842,-38.84433 -88.13842,-86.75355 0,-15.59183 4.18263,-30.2266 11.4993,-42.87174 L 92.523589,717.35947 z"
       id="path2996"
       inkscape:connector-curvature="0" />
  </g>
</svg>
