/* XPM */
static char * pingus_xpm[] = {
"32 32 659 2",
"  	c None",
". 	c #161616",
"+ 	c #171717",
"@ 	c #181818",
"# 	c #181817",
"$ 	c #191817",
"% 	c #191717",
"& 	c #171616",
"* 	c #1A1A1A",
"= 	c #151515",
"- 	c #434343",
"; 	c #656666",
"> 	c #808485",
", 	c #8C9194",
"' 	c #8B979A",
") 	c #879BA0",
"! 	c #85A1A9",
"~ 	c #80A5B1",
"{ 	c #7EABBA",
"] 	c #77ABBC",
"^ 	c #72AABD",
"/ 	c #73ABBD",
"( 	c #79AEBE",
"_ 	c #7DAAB9",
": 	c #80A4B1",
"< 	c #83A0AB",
"[ 	c #869BA3",
"} 	c #88979C",
"| 	c #8B9396",
"1 	c #808587",
"2 	c #65686A",
"3 	c #434444",
"4 	c #191919",
"5 	c #242424",
"6 	c #5B5B5B",
"7 	c #A4A6A6",
"8 	c #A5A8A8",
"9 	c #A5AAAB",
"0 	c #A3AEB2",
"a 	c #A0B5BC",
"b 	c #9CBCC7",
"c 	c #96C3D3",
"d 	c #89C1D4",
"e 	c #739AA6",
"f 	c #6B797E",
"g 	c #696868",
"h 	c #696D6D",
"i 	c #6A7B81",
"j 	c #76A4B3",
"k 	c #88C4D7",
"l 	c #92C5D6",
"m 	c #98BFCB",
"n 	c #9DB8C1",
"o 	c #9FB2B7",
"p 	c #A2ADB0",
"q 	c #A4AAAB",
"r 	c #A2A7A7",
"s 	c #898989",
"t 	c #9FA0A0",
"u 	c #9EA0A0",
"v 	c #A0A4A5",
"w 	c #A0A8AB",
"x 	c #9FAFB3",
"y 	c #99B7BF",
"z 	c #94BFCC",
"A 	c #87C2D5",
"B 	c #6D7A7E",
"C 	c #727473",
"D 	c #C8C8C7",
"E 	c #DDDDDD",
"F 	c #D9D9D9",
"G 	c #C2C2C2",
"H 	c #777575",
"I 	c #6D7679",
"J 	c #81C2D6",
"K 	c #8DC3D5",
"L 	c #93BBC9",
"M 	c #98B4BE",
"N 	c #9BADB3",
"O 	c #9CA7AB",
"P 	c #9BA2A5",
"Q 	c #9EA1A1",
"R 	c #888989",
"S 	c #535353",
"T 	c #9A9A9A",
"U 	c #999A9A",
"V 	c #9C9E9E",
"W 	c #9CA2A3",
"X 	c #9DA7AB",
"Y 	c #99ADB4",
"Z 	c #94B7C2",
"` 	c #8CC0D2",
" .	c #73919B",
"..	c #7B7978",
"+.	c #F6F6F6",
"@.	c #FFFFFF",
"#.	c #898A8A",
"$.	c #6F7A7F",
"%.	c #83C6DD",
"&.	c #8AC1D2",
"*.	c #8FB8C5",
"=.	c #95B0B9",
"-.	c #96A9AE",
";.	c #98A2A5",
">.	c #979D9F",
",.	c #999A9C",
"'.	c #525353",
").	c #404040",
"!.	c #969696",
"~.	c #959798",
"{.	c #989A9B",
"].	c #989EA0",
"^.	c #99A6A9",
"/.	c #94ADB5",
"(.	c #8EB7C3",
"_.	c #83BCCF",
":.	c #6B7376",
"<.	c #BEBFBF",
"[.	c #FEFEFE",
"}.	c #9B9B9B",
"|.	c #8C8C8C",
"1.	c #DCDCDC",
"2.	c #666B6C",
"3.	c #79C3DB",
"4.	c #82C7DE",
"5.	c #88BDCE",
"6.	c #8CB3BF",
"7.	c #90A9B3",
"8.	c #93A2A8",
"9.	c #949C9E",
"0.	c #93989A",
"a.	c #949698",
"b.	c #40403F",
"c.	c #5C5C5C",
"d.	c #919191",
"e.	c #929394",
"f.	c #949799",
"g.	c #959C9E",
"h.	c #93A2A7",
"i.	c #8FABB4",
"j.	c #89B6C6",
"k.	c #7FB7CB",
"l.	c #666C6E",
"m.	c #E9E9E9",
"n.	c #F9F9F9",
"o.	c #808080",
"p.	c #6C6C6C",
"q.	c #AAAAAA",
"r.	c #656565",
"s.	c #6E909C",
"t.	c #7BAEBE",
"u.	c #85B3C4",
"v.	c #8BACB6",
"w.	c #8EA1A9",
"x.	c #8F9A9D",
"y.	c #8F9496",
"z.	c #8F9293",
"A.	c #8C8D8D",
"B.	c #8E9090",
"C.	c #909294",
"D.	c #90999A",
"E.	c #8F9FA4",
"F.	c #8AA9B3",
"G.	c #84B6C5",
"H.	c #7CBBD0",
"I.	c #687073",
"J.	c #E5E5E5",
"K.	c #747474",
"L.	c #D1D1D1",
"M.	c #A09F9E",
"N.	c #6B6C6C",
"O.	c #738388",
"P.	c #85AAB6",
"Q.	c #89A1A8",
"R.	c #8A989D",
"S.	c #8A9193",
"T.	c #8A8D8E",
"U.	c #707070",
"V.	c #878787",
"W.	c #8A8C8D",
"X.	c #8B9092",
"Y.	c #8B9499",
"Z.	c #899DA3",
"`.	c #86A7B3",
" +	c #81B5C7",
".+	c #79C1D8",
"++	c #6B787C",
"@+	c #B7B7B7",
"#+	c #CBCBCB",
"$+	c #757575",
"%+	c #F8F8F7",
"&+	c #FDFDFD",
"*+	c #F3F3F3",
"=+	c #999898",
"-+	c #6D7173",
";+	c #80A3B0",
">+	c #859EA6",
",+	c #879499",
"'+	c #878E90",
")+	c #858989",
"!+	c #6F7072",
"~+	c #6E6E6E",
"{+	c #818282",
"]+	c #838585",
"^+	c #858889",
"/+	c #858C8F",
"(+	c #869397",
"_+	c #849DA4",
":+	c #80A8B5",
"<+	c #7CB7C9",
"[+	c #76C5DF",
"}+	c #718890",
"|+	c #8C8B8B",
"1+	c #888787",
"2+	c #858382",
"3+	c #767271",
"4+	c #6C7578",
"5+	c #78A2AF",
"6+	c #7FA5B1",
"7+	c #819AA1",
"8+	c #829095",
"9+	c #83888B",
"0+	c #818484",
"a+	c #6C6E6E",
"b+	c #585A5A",
"c+	c #7D7F7F",
"d+	c #7E8183",
"e+	c #7F8A8E",
"f+	c #7F939A",
"g+	c #7D9EA8",
"h+	c #7BAABB",
"i+	c #77B9CE",
"j+	c #73C4DF",
"k+	c #6D7B80",
"l+	c #8F8E8E",
"m+	c #6D797D",
"n+	c #6E8B94",
"o+	c #6F9BA9",
"p+	c #72B3C9",
"q+	c #77BED5",
"r+	c #79ADBE",
"s+	c #7C9FAB",
"t+	c #7D949B",
"u+	c #7E8B8F",
"v+	c #7E8486",
"w+	c #7D8182",
"x+	c #474849",
"y+	c #686B6C",
"z+	c #7A8081",
"A+	c #798489",
"B+	c #798C92",
"C+	c #7997A1",
"D+	c #78A3B1",
"E+	c #76B1C4",
"F+	c #73C2DC",
"G+	c #709DAC",
"H+	c #6B6B6A",
"I+	c #F5F5F5",
"J+	c #A9A8A8",
"K+	c #6E93A0",
"L+	c #6FDCFF",
"M+	c #71CDEC",
"N+	c #72C2DD",
"O+	c #75B6CC",
"P+	c #76A9B9",
"Q+	c #799AA6",
"R+	c #798F96",
"S+	c #79858A",
"T+	c #7A8082",
"U+	c #686C6C",
"V+	c #474848",
"W+	c #424546",
"X+	c #4E5558",
"Y+	c #6A7679",
"Z+	c #75878D",
"`+	c #74909A",
" @	c #749DAA",
".@	c #73AABD",
"+@	c #72BAD1",
"@@	c #70A8BB",
"#@	c #6D6766",
"$@	c #E2E3E3",
"%@	c #716D6C",
"&@	c #7195A0",
"*@	c #70C6E2",
"=@	c #70C3DE",
"-@	c #72B5CB",
";@	c #74A7B8",
">@	c #749AA5",
",@	c #758C94",
"'@	c #768386",
")@	c #6A7174",
"!@	c #4E5355",
"~@	c #424444",
"{@	c #3E4344",
"]@	c #485356",
"^@	c #4A5E64",
"/@	c #5E7B85",
"(@	c #7197A4",
"_@	c #70A5B8",
":@	c #70BBD3",
"<@	c #7099A7",
"[@	c #626262",
"}@	c #CFCFCF",
"|@	c #EBEBEB",
"1@	c #888786",
"2@	c #6C7477",
"3@	c #76ADC0",
"4@	c #6FBBD4",
"5@	c #71AABD",
"6@	c #719AA8",
"7@	c #728D96",
"8@	c #5E7177",
"9@	c #4A5559",
"0@	c #484D4D",
"a@	c #3E4040",
"b@	c #3A4041",
"c@	c #435156",
"d@	c #445F69",
"e@	c #45707E",
"f@	c #538DA1",
"g@	c #6BAABE",
"h@	c #6D848B",
"i@	c #736F6E",
"j@	c #F0F0F0",
"k@	c #B2B2B2",
"l@	c #6F6F6F",
"m@	c #A3A3A3",
"n@	c #D6D6D6",
"o@	c #9F9F9F",
"p@	c #757271",
"q@	c #6F878F",
"r@	c #6EAABC",
"s@	c #699DAD",
"t@	c #537986",
"u@	c #445E66",
"v@	c #445156",
"w@	c #43484A",
"x@	c #3A3B3D",
"y@	c #343D40",
"z@	c #3C5056",
"A@	c #3F606C",
"B@	c #427688",
"C@	c #4A8498",
"D@	c #475053",
"E@	c #757574",
"F@	c #ECECEC",
"G@	c #FBFBFB",
"H@	c #717171",
"I@	c #9D9D9D",
"J@	c #C3C3C3",
"K@	c #B0B0B0",
"L@	c #EFEFEF",
"M@	c #8E8D8D",
"N@	c #535758",
"O@	c #497887",
"P@	c #417384",
"Q@	c #405E67",
"R@	c #3D4E53",
"S@	c #3C4345",
"T@	c #343537",
"U@	c #2F393C",
"V@	c #374C53",
"W@	c #3A606B",
"X@	c #417484",
"Y@	c #474A4B",
"Z@	c #787878",
"`@	c #E7E7E7",
" #	c #909090",
".#	c #616161",
"+#	c #ACABAB",
"@#	c #C5C5C4",
"##	c #535151",
"$#	c #48555A",
"%#	c #3E7689",
"&#	c #3A5B66",
"*#	c #38494F",
"=#	c #353E40",
"-#	c #2E3133",
";#	c #2A3336",
">#	c #31474E",
",#	c #355965",
"'#	c #3E6B7A",
")#	c #474646",
"!#	c #656363",
"~#	c #656261",
"{#	c #585756",
"]#	c #525252",
"^#	c #515151",
"/#	c #3C3D3D",
"(#	c #455D66",
"_#	c #47646E",
":#	c #407D92",
"<#	c #3A7285",
"[#	c #365964",
"}#	c #32444B",
"|#	c #2E393B",
"1#	c #292C2D",
"2#	c #242D30",
"3#	c #2B3F46",
"4#	c #30525D",
"5#	c #346A7C",
"6#	c #3F7080",
"7#	c #466671",
"8#	c #465F68",
"9#	c #478397",
"0#	c #45585F",
"a#	c #CECECE",
"b#	c #4C4C4C",
"c#	c #6F6C6C",
"d#	c #45859B",
"e#	c #40AED3",
"f#	c #3C8FA9",
"g#	c #367083",
"h#	c #305561",
"i#	c #2C4147",
"j#	c #293235",
"k#	c #232829",
"l#	c #1F2728",
"m#	c #24353C",
"n#	c #294952",
"o#	c #2F5F70",
"p#	c #357B92",
"q#	c #3B96B4",
"r#	c #40ADD2",
"s#	c #44BDE5",
"t#	c #455A62",
"u#	c #929292",
"v#	c #FCFCFC",
"w#	c #B5B5B5",
"x#	c #8D8D8D",
"y#	c #B8B7B7",
"z#	c #455E67",
"A#	c #3FB0D4",
"B#	c #3A8FAC",
"C#	c #337085",
"D#	c #2C5562",
"E#	c #263E45",
"F#	c #222E31",
"G#	c #1E2325",
"H#	c #1B2123",
"I#	c #1E2D32",
"J#	c #223F48",
"K#	c #295867",
"L#	c #317489",
"M#	c #3890AD",
"N#	c #3EABCF",
"O#	c #43B9DF",
"P#	c #42555B",
"Q#	c #F8F8F8",
"R#	c #F7F7F7",
"S#	c #B3B3B3",
"T#	c #848484",
"U#	c #FAFAFA",
"V#	c #D5D5D5",
"W#	c #484140",
"X#	c #40B5DC",
"Y#	c #3895B3",
"Z#	c #32768D",
"`#	c #2A5868",
" $	c #233E47",
".$	c #1E2C31",
"+$	c #1B2023",
"@$	c #223E46",
"#$	c #285665",
"$$	c #2F7288",
"%$	c #438DA5",
"&$	c #476068",
"*$	c #467786",
"=$	c #404A4E",
"-$	c #BEBEBE",
";$	c #EEEEEE",
">$	c #5F5F5F",
",$	c #EDEDED",
"'$	c #47616A",
")$	c #4192AC",
"!$	c #31819B",
"~$	c #2B6173",
"{$	c #244652",
"]$	c #1F3239",
"^$	c #1B2325",
"/$	c #1E2C30",
"($	c #307B93",
"_$	c #4B5355",
":$	c #605F5F",
"<$	c #605E5D",
"[$	c #E6E6E6",
"}$	c #DFDFDF",
"|$	c #B4B4B4",
"1$	c #3B3B3B",
"2$	c #7C7C7C",
"3$	c #666566",
"4$	c #49413F",
"5$	c #437383",
"6$	c #2E6C80",
"7$	c #264E5B",
"8$	c #20383F",
"9$	c #1D2629",
"0$	c #295A6A",
"a$	c #32819B",
"b$	c #454545",
"c$	c #BCBCBC",
"d$	c #3C3C3C",
"e$	c #E4E4E4",
"f$	c #DEDEDE",
"g$	c #D8D8D8",
"h$	c #585858",
"i$	c #A0A0A0",
"j$	c #474747",
"k$	c #ACACAC",
"l$	c #B3B4B4",
"m$	c #424445",
"n$	c #336B7E",
"o$	c #285362",
"p$	c #213B44",
"q$	c #1C282B",
"r$	c #223E47",
"s$	c #2A5A6A",
"t$	c #307B94",
"u$	c #466E7B",
"v$	c #7D7C7B",
"w$	c #5E5E5E",
"x$	c #999999",
"y$	c #DADADA",
"z$	c #D4D4D4",
"A$	c #D7D7D7",
"B$	c #DBDBDB",
"C$	c #7F7F7F",
"D$	c #6A6A6A",
"E$	c #E2E2E2",
"F$	c #AFAFAF",
"G$	c #434546",
"H$	c #346B7E",
"I$	c #1B2021",
"J$	c #1D2A2F",
"K$	c #223C45",
"L$	c #2F778E",
"M$	c #4A707C",
"N$	c #474645",
"O$	c #C8C8C8",
"P$	c #CCCCCC",
"Q$	c #B8B8B8",
"R$	c #CDCDCD",
"S$	c #C5C5C5",
"T$	c #B9B9B9",
"U$	c #D0D0D0",
"V$	c #4A4746",
"W$	c #416773",
"X$	c #2E6D81",
"Y$	c #264F5C",
"Z$	c #1D272A",
"`$	c #191918",
" %	c #1B1F21",
".%	c #20373E",
"+%	c #264E5C",
"@%	c #2D6D83",
"#%	c #475A61",
"$%	c #434242",
"%%	c #C4C4C4",
"&%	c #C1C1C1",
"*%	c #C0C0C0",
"=%	c #C6C6C6",
"-%	c #727272",
";%	c #797979",
">%	c #5A5A5A",
",%	c #3F4040",
"'%	c #446671",
")%	c #30809A",
"!%	c #2A6071",
"~%	c #254752",
"{%	c #1C2326",
"]%	c #191818",
"^%	c #191D1E",
"/%	c #1C2528",
"(%	c #1F3137",
"_%	c #24444F",
":%	c #2A5C6E",
"<%	c #32788E",
"[%	c #436F7E",
"}%	c #494341",
"|%	c #A9A9A9",
"1%	c #B6B6B6",
"2%	c #494949",
"3%	c #6D6D6D",
"4%	c #436975",
"5%	c #34839C",
"6%	c #2E6A7E",
"7%	c #26505E",
"8%	c #1D2B30",
"9%	c #191D1C",
"0%	c #1A2022",
"a%	c #1D2A2E",
"b%	c #213840",
"c%	c #264C59",
"d%	c #2C6376",
"e%	c #307D96",
"f%	c #3F8196",
"g%	c #45565B",
"h%	c #414445",
"i%	c #5F5E5D",
"j%	c #7F7F7E",
"k%	c #888888",
"l%	c #8E8E8E",
"m%	c #858584",
"n%	c #61605F",
"o%	c #464443",
"p%	c #484E50",
"q%	c #495D64",
"r%	c #464849",
"s%	c #424242",
"t%	c #455155",
"u%	c #3C7C92",
"v%	c #32839D",
"w%	c #23404B",
"x%	c #1E3035",
"y%	c #1C2427",
"z%	c #191F21",
"A%	c #1A1B1C",
"B%	c #1A1F21",
"C%	c #1B2528",
"D%	c #1E3238",
"E%	c #244853",
"F%	c #2C6174",
"G%	c #30758C",
"H%	c #35849E",
"I%	c #3B849C",
"J%	c #446D7A",
"K%	c #455F67",
"L%	c #47575B",
"M%	c #464A4C",
"N%	c #475357",
"O%	c #43717F",
"P%	c #3E88A1",
"Q%	c #3D92AD",
"R%	c #3A96B4",
"S%	c #3A859E",
"T%	c #3B7E95",
"U%	c #357C94",
"V%	c #30748B",
"W%	c #27505E",
"X%	c #213A42",
"Y%	c #1D292D",
"Z%	c #1A2124",
"`%	c #1A1D1F",
" &	c #20363C",
".&	c #274F5B",
"+&	c #2D6678",
"@&	c #2E6F85",
"#&	c #2F768E",
"$&	c #2F7A93",
"%&	c #30768D",
"&&	c #307186",
"*&	c #2D687C",
"=&	c #2C6475",
"-&	c #2A5D6E",
";&	c #285664",
">&	c #23414B",
",&	c #1D2B31",
"'&	c #191716",
"          . + . @ @ # # $ % % $ % % % $ # # @ @ . & .           ",
"      * = - ; > , ' ) ! ~ { ] ^ / ( _ : < [ } | 1 2 3 = *       ",
"    4 5 6 7 8 9 0 a b c d e f g h i j k l m n o p q r 6 5 4     ",
"  * 5 s t u v w x y z A B C D E F G H I J K L M N O P Q R 5 *   ",
"  . S T U V W X Y Z `  ...+.@.@.@.@.+.#.$.%.&.*.=.-.;.>.,.'..   ",
"+ ).!.!.~.{.].^./.(._.:.<.@.[.@.[.}.|.1.2.3.4.5.6.7.8.9.0.a.b.+ ",
"+ c.d.d.e.f.g.h.i.j.k.l.m.@.@.@.n.o.p.q.r.:.s.t.u.v.w.x.y.z.c.+ ",
"+ p.|.A.B.C.D.E.F.G.H.I.1.@.@.@.@.J.K.d.F L.M.N.O.P.Q.R.S.T.p.+ ",
"@ U.V.R W.X.Y.Z.`. +.+++@+@.@.@.@.#+$+%+@.&+*+=+-+;+>+,+'+)+!+@ ",
"@ ~+{+]+^+/+(+_+:+<+[+}+|+@.@.@.@.G U.t 1+2+3+4+5+6+7+8+9+0+a+@ ",
"4 b+c+d+1 e+f+g+h+i+j+k+}.@.@.@.@.@.l+m+n+o+p+q+r+s+t+u+v+w+b+4 ",
"4 x+y+z+A+B+C+D+E+F+G+H+I+@.@.@.[.@.J+K+L+M+N+O+P+Q+R+S+T+U+V+4 ",
"4 W+X+Y+Z+`+ @.@+@@@#@1.@.[.@.@.@.@.$@%@&@*@=@-@;@>@,@'@)@!@~@4 ",
"4 {@]@^@/@(@_@:@<@[@}@@.[.@.@.@.@.@.@.|@1@2@3@4@5@6@7@8@9@0@a@4 ",
"4 b@c@d@e@f@g@h@i@F @.[.@.@.[.@.j@k@l@m@n@o@p@q@r@s@t@u@v@w@x@4 ",
"4 y@z@A@B@C@D@E@F@@.@.@.@.[.@.G@H@I@F J@r.K@L@M@N@O@P@Q@R@S@T@4 ",
"4 U@V@W@X@Y@Z@@.G@L@}@o@`@@.[. #d.@.@.@.m..#+#@###$#%#&#*#=#-#4 ",
"4 ;#>#,#'#)#!#p.~#{#]#q.+.@.F@^#F@@.@.[.@.J@/#(#_#:#<#[#}#|#1#4 ",
"4 2#3#4#5#6#7#8#9#0#l+@.@.@.a#b#@.@.@.@.@.@.c#d#e#f#g#h#i#j#k#4 ",
"4 l#m#n#o#p#q#r#s#t#u#@.v#[.w#x#@.v#v#v#v#@.y#z#A#B#C#D#E#F#G#4 ",
"4 H#I#J#K#L#M#N#O#P#q.Q#I+R#S#T#U#I+I+I++.R#V#W#X#Y#Z#`# $.$+$4 ",
"4 +$.$@$#$$$%$&$*$=$-$j@;$;$@+>$+.,$;$;$L@*+G )#'$)$!$~${$]$^$4 ",
"4 +$/$@$K#($_$:$<$).V#`@[$J.}@).}$[$J.[$m.|$1$2$3$4$5$6$7$8$9$4 ",
"4 +$/$J#0$a$b$c$c$d$e$}$f$E g$h$i$}$f$f$}@j$k$J.J.l$m$n$o$p$q$4 ",
"4 +$/$r$s$t$u$v$w$x$y$n@V#z$A$~+.#n@V#B$C$D$E$B$f$F$G$H$o$p$q$4 ",
"4 I$J$K$#$L$M$N$c.O$a#P$P$#+#+k$- Q$R$S$- T$U$z$T$V$W$X$Y$8$Z$4 ",
"`$ %q$.%+%@%#%$%F$O$%%G &%*%*%=%-%]#k$;%>%%%O$K@,%'%)%!%~%]${%]%",
"  ^%/%(%_%:%<%[%}%; |%c$@+1%w#w#w#2$2%b#[@c$3%}%4%5%6%7%p$8%H#  ",
"  9%0%a%b%c%d%e%f%g%h%i%j%k%l%m%n%o%p%q%r%s%t%u%v%6%o$w%x%y%z%  ",
"    A%B%C%D%E%F%G%H%I%J%K%L%M%N%O%P%Q%R%S%T%U%V%d%W%X%Y%Z%`%    ",
"      4 4 4 H# &.&0$+&@&#&$&e%($%&&&6$*&=&-&;&c%>&,&`%4 4       ",
"          4 4 `$]%$ % '&'&'&'&'&'&'&'&% % % $ ]%]%4 4           "};
